<svg xmlns="http://www.w3.org/2000/svg" width="180" height="180" viewBox="0 0 180 180">
  <defs>
    <linearGradient id="ag" x1="0" y1="0" x2="32" y2="32" gradientUnits="userSpaceOnUse">
      <stop offset="0%" stop-color="#e8d4a8"/>
      <stop offset="100%" stop-color="#b8944a"/>
    </linearGradient>
  </defs>
  <rect x="13" y="13" width="154" height="154" rx="32" fill="#1a1f2e"/>
  <g transform="translate(90,90) scale(4.5) translate(-16,-16)">
    <path d="M16 1.5 L30.5 16 L16 30.5 L1.5 16 Z" fill="none" stroke="url(#ag)" stroke-width="0.4"/>
    <path d="M16 7 L25 16 L16 25 L7 16 Z" fill="none" stroke="url(#ag)" stroke-width="0.27" opacity="0.45"/>
    <rect x="9" y="9" width="6.2" height="6.2" fill="url(#ag)" opacity="0.9"/>
    <rect x="16.8" y="9" width="6.2" height="6.2" fill="url(#ag)" opacity="0.55"/>
    <rect x="9" y="16.8" width="6.2" height="6.2" fill="url(#ag)" opacity="0.55"/>
    <rect x="16.8" y="16.8" width="6.2" height="6.2" fill="url(#ag)" opacity="0.25"/>
    <path d="M6 2.5 L2.5 2.5 L2.5 6" fill="none" stroke="url(#ag)" stroke-width="0.6" stroke-linecap="round"/>
    <path d="M26 2.5 L29.5 2.5 L29.5 6" fill="none" stroke="url(#ag)" stroke-width="0.6" stroke-linecap="round"/>
    <path d="M26 29.5 L29.5 29.5 L29.5 26" fill="none" stroke="url(#ag)" stroke-width="0.6" stroke-linecap="round"/>
    <path d="M6 29.5 L2.5 29.5 L2.5 26" fill="none" stroke="url(#ag)" stroke-width="0.6" stroke-linecap="round"/>
  </g>
</svg>
